<?xml version="1.0" encoding="utf-8"?>
<!-- Generator: Adobe Illustrator 16.0.0, SVG Export Plug-In . SVG Version: 6.00 Build 0)  -->
<!DOCTYPE svg PUBLIC "-//W3C//DTD SVG 1.0//EN" "http://www.w3.org/TR/2001/REC-SVG-20010904/DTD/svg10.dtd">
<svg version="1.0" id="Layer_1" xmlns="http://www.w3.org/2000/svg" xmlns:xlink="http://www.w3.org/1999/xlink" x="0px" y="0px"
	 width="100px" height="100px" viewBox="0 0 100 100" enable-background="new 0 0 100 100" xml:space="preserve">
<polygon points="53.333,10 53.333,26.667 70,26.667 "/>
<path d="M48.333,31.667V10H10v80h35V63.333H16.667v-5h30.042C48.229,56.321,50.622,55,53.333,55H55v-1.667
	C55,48.737,58.737,45,63.333,45H70V31.667H48.333z M38.333,83.333H16.667v-5h21.667V83.333z M38.333,68.333v5H16.667v-5H38.333z
	 M26.667,16.667c2.761,0,5,2.24,5,5c0,2.761-2.239,5-5,5c-2.76,0-5-2.239-5-5C21.667,18.906,23.906,16.667,26.667,16.667z
	 M16.667,33.333C16.667,31.504,18.164,30,20,30h1.159c1.582,1.048,3.47,1.667,5.508,1.667c2.038,0,3.926-0.618,5.508-1.667h1.159
	c1.829,0,3.333,1.504,3.333,3.333V40h-20V33.333z M43.333,53.333H16.667v-5h26.667V53.333z"/>
<path d="M72.5,76.517v5.15h-5v-5.15c-6.237-0.299-12.302-1.738-17.5-4.303v14.453C50,88.499,51.501,90,53.333,90h33.334
	C88.499,90,90,88.499,90,86.667V72.214C84.798,74.778,78.737,76.218,72.5,76.517z"/>
<path d="M90,66.653v-3.32C90,61.501,88.499,60,86.667,60H80v-6.667C80,51.501,78.499,50,76.667,50H63.333
	C61.501,50,60,51.501,60,53.333V60h-6.667C51.501,60,50,61.501,50,63.333v3.32C61.045,73.32,78.952,73.32,90,66.653z M65,55h10v5H65
	V55z"/>
</svg>
