<?xml version="1.0" encoding="UTF-8" standalone="no"?> <svg width="24" height="24" viewBox="0 0 24 24" fill="none" xmlns="http://www.w3.org/2000/svg">
<path d="M11.5 1.51578V3.47669L10.6387 2.42008L10.3242 2.03336L9.54688 2.66423L9.8633 3.05095L11.4571 5.00796L11.5001 5.06069V8.28921C10.8483 8.3769 10.2515 8.62469 9.74806 9.0021L7.44145 6.71689L7.43755 6.67002L7.18169 4.1622L7.13286 3.66415L6.13676 3.76767L6.18754 4.26376L6.32426 5.60947L5.29106 4.58407L4.93753 4.2325L4.23245 4.94345L4.58597 5.29501L5.62698 6.32621L4.26367 6.18754L3.76758 6.13676L3.66406 7.13286L4.16211 7.18169L6.66992 7.43755L6.75586 7.44732L9.03518 9.70513C8.63503 10.2169 8.36678 10.8276 8.27345 11.5H5.05864L5.0059 11.4571L3.05079 9.86326L2.66407 9.54685L2.03321 10.3242L2.41993 10.6386L3.47654 11.5H1.51562V12.5H3.47654L2.41993 13.3613L2.03321 13.6758L2.66407 14.4531L3.05079 14.1367L5.0059 12.5429L5.05864 12.4999H8.27155C8.3585 13.167 8.6146 13.7773 9.00398 14.289L8.795 14.4961L6.73639 16.5547L6.66998 16.5606L4.16216 16.8184L3.66411 16.8672L3.76763 17.8633L4.26177 17.8125L5.61728 17.6739L4.23247 19.0587L4.94146 19.7677L6.32626 18.3828L6.18759 19.7384L6.13681 20.2325L7.13291 20.336L7.18174 19.838L7.43955 17.3302L7.44545 17.2638L9.50406 15.2051L9.70914 14.9981C10.2206 15.3923 10.831 15.6522 11.5001 15.7423V18.9415L11.4572 18.9942L9.86337 20.9493L9.54696 21.336L10.3243 21.9669L10.6388 21.5802L11.5 20.5235V22.4844H12.5001V20.5235L13.3614 21.5801L13.6758 21.9668L14.4532 21.3359L14.1368 20.9492L12.543 18.9941L12.5 18.9414V15.7421C13.1692 15.6521 13.7796 15.3922 14.291 14.998L14.4961 15.205L16.5547 17.2636L16.5606 17.3301L16.8184 19.8379L16.8672 20.3359L17.8633 20.2324L17.8126 19.7383L17.6739 18.3828L19.0587 19.7676L19.7677 19.0586L18.3829 17.6738L19.7384 17.8124L20.2325 17.8632L20.336 16.8671L19.838 16.8183L17.3302 16.5605L17.2638 16.5546L15.2052 14.496L14.9962 14.2889C15.3855 13.7772 15.6417 13.1669 15.7286 12.4998H18.9395L18.9922 12.5428L20.9493 14.1366L21.336 14.453L21.9668 13.6757L21.5801 13.3612L20.5235 12.4999H22.4844V11.4999H20.5235L21.5801 10.6385L21.9668 10.3241L21.336 9.54675L20.9493 9.86317L18.9922 11.4569L18.9395 11.4998H15.7266C15.6333 10.8274 15.365 10.2166 14.9649 9.70494L17.2442 7.44712L17.3301 7.43735L19.8379 7.18149L20.336 7.13266L20.2325 6.13657L19.7364 6.18735L18.3731 6.32602L19.4141 5.29481L19.7676 4.94329L19.0625 4.23235L18.709 4.58391L17.6758 5.60932L17.8125 4.26361L17.8633 3.76752L16.8672 3.664L16.8184 4.16205L16.5625 6.66986L16.5586 6.71674L14.252 9.00195C13.7486 8.62454 13.1518 8.37675 12.5 8.28906V5.06054L12.5429 5.0078L14.1367 3.05079L14.4531 2.66407L13.6758 2.03321L13.3614 2.41993L12.5 3.47654V1.51562L11.5 1.51578ZM12 9.23852C13.5403 9.23852 14.7773 10.4755 14.7773 12.0158C14.7773 13.5561 13.5403 14.7952 12 14.7952C10.4597 14.7952 9.2227 13.5561 9.2227 12.0158C9.2227 10.4755 10.4597 9.23852 12 9.23852Z" fill="black"/>
</svg>
